<svg width="316" height="25" viewBox="0 0 316 25" fill="none" xmlns="http://www.w3.org/2000/svg">
<rect y="1" width="20" height="2" rx="1" fill="#626262"/>
<rect y="6" width="20" height="2" rx="1" fill="#626262"/>
<rect y="11" width="20" height="2" rx="1" fill="#626262"/>
<rect x="302" width="4" height="4" rx="2" fill="#626262"/>
<rect x="307" width="4" height="4" rx="2" fill="#626262"/>
<rect x="312" width="4" height="4" rx="2" fill="#626262"/>
<rect x="302" width="4" height="4" rx="2" fill="#626262"/>
<rect x="307" width="4" height="4" rx="2" fill="#626262"/>
<rect x="312" width="4" height="4" rx="2" fill="#626262"/>
<rect x="302" y="5" width="4" height="4" rx="2" fill="#626262"/>
<rect x="307" y="5" width="4" height="4" rx="2" fill="#626262"/>
<rect x="312" y="5" width="4" height="4" rx="2" fill="#626262"/>
<rect x="302" y="10" width="4" height="4" rx="2" fill="#626262"/>
<rect x="307" y="10" width="4" height="4" rx="2" fill="#626262"/>
<rect x="312" y="10" width="4" height="4" rx="2" fill="#626262"/>
<path d="M44.128 4.866H41.668V12H39.64V4.866H37.18V3.258H44.128V4.866ZM48.8065 10.398C49.0785 10.398 49.3205 10.354 49.5325 10.266C49.7485 10.174 49.9305 10.044 50.0785 9.876C50.2265 9.708 50.3385 9.504 50.4145 9.264C50.4945 9.02 50.5345 8.744 50.5345 8.436V3.258H52.5625V8.436C52.5625 8.972 52.4745 9.464 52.2985 9.912C52.1265 10.36 51.8785 10.746 51.5545 11.07C51.2305 11.394 50.8365 11.646 50.3725 11.826C49.9085 12.006 49.3865 12.096 48.8065 12.096C48.2225 12.096 47.6985 12.006 47.2345 11.826C46.7705 11.646 46.3765 11.394 46.0525 11.07C45.7285 10.746 45.4805 10.36 45.3085 9.912C45.1365 9.464 45.0505 8.972 45.0505 8.436V3.258H47.0785V8.43C47.0785 8.738 47.1165 9.014 47.1925 9.258C47.2725 9.498 47.3865 9.704 47.5345 9.876C47.6825 10.044 47.8625 10.174 48.0745 10.266C48.2905 10.354 48.5345 10.398 48.8065 10.398ZM60.4288 4.866H57.9688V12H55.9408V4.866H53.4808V3.258H60.4288V4.866ZM67.7413 4.866H65.2813V12H63.2533V4.866H60.7933V3.258H67.7413V4.866ZM70.8118 12H68.7718V3.258H70.8118V12Z" fill="#5786D4"/>
<path d="M100.886 12H98.846V3.258H100.886V12ZM112.401 3.258V12H110.613V6.972C110.613 6.856 110.615 6.73 110.619 6.594C110.627 6.458 110.639 6.32 110.655 6.18L108.333 10.674C108.261 10.814 108.163 10.92 108.039 10.992C107.919 11.064 107.781 11.1 107.625 11.1H107.349C107.193 11.1 107.053 11.064 106.929 10.992C106.809 10.92 106.713 10.814 106.641 10.674L104.319 6.168C104.331 6.312 104.341 6.454 104.349 6.594C104.357 6.73 104.361 6.856 104.361 6.972V12H102.573V3.258H104.121C104.209 3.258 104.285 3.26 104.349 3.264C104.417 3.268 104.477 3.28 104.529 3.3C104.581 3.32 104.627 3.352 104.667 3.396C104.711 3.436 104.753 3.494 104.793 3.57L107.043 8.004C107.123 8.156 107.199 8.314 107.271 8.478C107.347 8.642 107.419 8.81 107.487 8.982C107.555 8.806 107.625 8.634 107.697 8.466C107.773 8.298 107.853 8.138 107.937 7.986L110.181 3.57C110.221 3.494 110.261 3.436 110.301 3.396C110.345 3.352 110.393 3.32 110.445 3.3C110.497 3.28 110.555 3.268 110.619 3.264C110.687 3.26 110.765 3.258 110.853 3.258H112.401ZM123.92 3.258V12H122.132V6.972C122.132 6.856 122.134 6.73 122.138 6.594C122.146 6.458 122.158 6.32 122.174 6.18L119.852 10.674C119.78 10.814 119.682 10.92 119.558 10.992C119.438 11.064 119.3 11.1 119.144 11.1H118.868C118.712 11.1 118.572 11.064 118.448 10.992C118.328 10.92 118.232 10.814 118.16 10.674L115.838 6.168C115.85 6.312 115.86 6.454 115.868 6.594C115.876 6.73 115.88 6.856 115.88 6.972V12H114.092V3.258H115.64C115.728 3.258 115.804 3.26 115.868 3.264C115.936 3.268 115.996 3.28 116.048 3.3C116.1 3.32 116.146 3.352 116.186 3.396C116.23 3.436 116.272 3.494 116.312 3.57L118.562 8.004C118.642 8.156 118.718 8.314 118.79 8.478C118.866 8.642 118.938 8.81 119.006 8.982C119.074 8.806 119.144 8.634 119.216 8.466C119.292 8.298 119.372 8.138 119.456 7.986L121.7 3.57C121.74 3.494 121.78 3.436 121.82 3.396C121.864 3.352 121.912 3.32 121.964 3.3C122.016 3.28 122.074 3.268 122.138 3.264C122.206 3.26 122.284 3.258 122.372 3.258H123.92ZM130.232 8.658L129.422 6.264C129.362 6.112 129.298 5.934 129.23 5.73C129.162 5.522 129.094 5.298 129.026 5.058C128.966 5.302 128.902 5.528 128.834 5.736C128.766 5.944 128.702 6.124 128.642 6.276L127.838 8.658H130.232ZM133.454 12H131.882C131.706 12 131.564 11.96 131.456 11.88C131.348 11.796 131.266 11.69 131.21 11.562L130.694 10.038H127.37L126.854 11.562C126.81 11.674 126.73 11.776 126.614 11.868C126.502 11.956 126.362 12 126.194 12H124.61L127.994 3.258H130.07L133.454 12ZM138.05 7.47H141.158V11.16C140.71 11.488 140.232 11.726 139.724 11.874C139.22 12.022 138.692 12.096 138.14 12.096C137.42 12.096 136.764 11.984 136.172 11.76C135.584 11.532 135.08 11.22 134.66 10.824C134.24 10.424 133.916 9.952 133.688 9.408C133.46 8.86 133.346 8.266 133.346 7.626C133.346 6.974 133.454 6.376 133.67 5.832C133.886 5.284 134.194 4.812 134.594 4.416C134.998 4.02 135.484 3.712 136.052 3.492C136.624 3.272 137.262 3.162 137.966 3.162C138.33 3.162 138.672 3.192 138.992 3.252C139.312 3.312 139.606 3.394 139.874 3.498C140.146 3.602 140.394 3.726 140.618 3.87C140.842 4.014 141.042 4.17 141.218 4.338L140.63 5.232C140.538 5.372 140.418 5.458 140.27 5.49C140.126 5.522 139.97 5.486 139.802 5.382C139.642 5.286 139.49 5.204 139.346 5.136C139.206 5.064 139.062 5.006 138.914 4.962C138.766 4.918 138.61 4.886 138.446 4.866C138.282 4.846 138.098 4.836 137.894 4.836C137.514 4.836 137.172 4.904 136.868 5.04C136.564 5.172 136.304 5.36 136.088 5.604C135.876 5.848 135.712 6.142 135.596 6.486C135.48 6.826 135.422 7.206 135.422 7.626C135.422 8.09 135.486 8.502 135.614 8.862C135.742 9.222 135.922 9.526 136.154 9.774C136.39 10.022 136.67 10.212 136.994 10.344C137.322 10.472 137.684 10.536 138.08 10.536C138.324 10.536 138.544 10.512 138.74 10.464C138.94 10.416 139.134 10.352 139.322 10.272V8.946H138.458C138.33 8.946 138.23 8.912 138.158 8.844C138.086 8.776 138.05 8.69 138.05 8.586V7.47ZM144.562 12H142.522V3.258H144.562V12ZM153.88 3.258V12H152.824C152.668 12 152.536 11.976 152.428 11.928C152.324 11.876 152.22 11.788 152.116 11.664L147.994 6.45C148.01 6.606 148.02 6.758 148.024 6.906C148.032 7.05 148.036 7.186 148.036 7.314V12H146.248V3.258H147.316C147.404 3.258 147.478 3.262 147.538 3.27C147.598 3.278 147.652 3.294 147.7 3.318C147.748 3.338 147.794 3.368 147.838 3.408C147.882 3.448 147.932 3.502 147.988 3.57L152.146 8.82C152.126 8.652 152.112 8.49 152.104 8.334C152.096 8.174 152.092 8.024 152.092 7.884V3.258H153.88ZM157.616 12H155.576V3.258H157.616V12Z" fill="#626262"/>
<rect x="32" y="23" width="45" height="2" rx="1" fill="#5786D4"/>
</svg>
