<svg width="310" height="21" viewBox="0 0 310 21" fill="none" xmlns="http://www.w3.org/2000/svg">
<rect x="278.75" y="1.75" width="16.5" height="16.5" rx="2.25" stroke="black" stroke-opacity="0.79" stroke-width="1.5"/>
<path d="M288.248 15H286.555V8.47266L284.533 9.09961V7.72266L288.066 6.45703H288.248V15Z" fill="black" fill-opacity="0.85"/>
<rect x="307" y="3" width="3" height="3" rx="1.5" fill="#414141"/>
<rect x="307" y="8" width="3" height="3" rx="1.5" fill="#414141"/>
<rect x="307" y="13" width="3" height="3" rx="1.5" fill="#414141"/>
<path fill-rule="evenodd" clip-rule="evenodd" d="M9.17007 2.40655L1.5973 10.085C1.36016 10.3256 1.23018 10.6443 1.2326 10.9799C1.23312 11.146 1.26659 11.3103 1.33106 11.4633C1.39552 11.6164 1.48971 11.7551 1.60817 11.8715C1.84874 12.1086 2.16751 12.2386 2.50506 12.2362L3.36178 12.23L3.408 18.6594L17.0642 18.5612L17.018 12.1319L17.8569 12.1258C18.5518 12.1208 19.1262 11.562 19.1291 10.8671C19.1298 10.6986 19.0967 10.5317 19.0319 10.3762C18.967 10.2207 18.8717 10.0797 18.7515 9.96168L10.5541 1.8853C10.4368 1.77042 10.2788 1.7066 10.1146 1.70778C9.95039 1.70896 9.79332 1.77504 9.67766 1.8916L9.17007 2.40655ZM4.70214 10.799L4.7956 17.2992L14.6982 17.1568L15.6327 17.1501L15.6327 17.1434L15.8438 17.1404L15.7514 10.7196L17.4815 10.7072L10.1252 3.46175L9.67251 3.92103L2.87583 10.8122L4.70214 10.799Z" fill="#323232"/>
</svg>
