<svg width="54" height="54" viewBox="0 0 54 54" fill="none" xmlns="http://www.w3.org/2000/svg">
<circle cx="27" cy="27" r="27" fill="white"/>
<path d="M17.9355 30H11.877V21.5625H14.2031V28.9277H17.9355V30ZM25.7754 26.6016C25.7754 26.9531 25.7285 27.2832 25.6348 27.5918C25.541 27.9004 25.4102 28.1855 25.2422 28.4473C25.0781 28.709 24.8789 28.9453 24.6445 29.1562C24.4102 29.3633 24.1523 29.5391 23.8711 29.6836C23.5938 29.8281 23.2949 29.9395 22.9746 30.0176C22.6582 30.0957 22.332 30.1348 21.9961 30.1348C21.6602 30.1348 21.334 30.0957 21.0176 30.0176C20.7012 29.9395 20.4023 29.8281 20.1211 29.6836C19.8438 29.5391 19.5879 29.3633 19.3535 29.1562C19.1191 28.9453 18.918 28.709 18.75 28.4473C18.5859 28.1855 18.457 27.9004 18.3633 27.5918C18.2695 27.2793 18.2227 26.9492 18.2227 26.6016C18.2227 26.2539 18.2695 25.9258 18.3633 25.6172C18.457 25.3047 18.5859 25.0176 18.75 24.7559C18.918 24.4941 19.1191 24.2598 19.3535 24.0527C19.5879 23.8418 19.8438 23.6641 20.1211 23.5195C20.4023 23.375 20.7012 23.2637 21.0176 23.1855C21.334 23.1074 21.6602 23.0684 21.9961 23.0684C22.332 23.0684 22.6582 23.1074 22.9746 23.1855C23.2949 23.2637 23.5938 23.375 23.8711 23.5195C24.1523 23.6641 24.4102 23.8418 24.6445 24.0527C24.8789 24.2598 25.0781 24.4941 25.2422 24.7559C25.4102 25.0176 25.541 25.3047 25.6348 25.6172C25.7285 25.9258 25.7754 26.2539 25.7754 26.6016ZM23.7598 26.6016C23.7598 26.4141 23.748 26.2168 23.7246 26.0098C23.7051 25.7988 23.6699 25.5938 23.6191 25.3945C23.5684 25.1914 23.498 24.998 23.4082 24.8145C23.3223 24.627 23.2148 24.4648 23.0859 24.3281C22.957 24.1875 22.8027 24.0762 22.623 23.9941C22.4434 23.9082 22.2344 23.8652 21.9961 23.8652C21.7695 23.8652 21.5684 23.9082 21.3926 23.9941C21.2168 24.0801 21.0625 24.1953 20.9297 24.3398C20.8008 24.4805 20.6914 24.6445 20.6016 24.832C20.5156 25.0195 20.4453 25.2148 20.3906 25.418C20.3359 25.6172 20.2969 25.8203 20.2734 26.0273C20.25 26.2305 20.2383 26.4219 20.2383 26.6016C20.2383 26.7812 20.25 26.9746 20.2734 27.1816C20.2969 27.3848 20.3359 27.5879 20.3906 27.791C20.4453 27.9941 20.5156 28.1895 20.6016 28.377C20.6914 28.5605 20.8008 28.7246 20.9297 28.8691C21.0625 29.0098 21.2168 29.123 21.3926 29.209C21.5684 29.2949 21.7695 29.3379 21.9961 29.3379C22.2305 29.3379 22.4375 29.2969 22.6172 29.2148C22.7969 29.1289 22.9512 29.0156 23.0801 28.875C23.2129 28.7344 23.3223 28.5723 23.4082 28.3887C23.4941 28.2051 23.5625 28.0117 23.6133 27.8086C23.668 27.6055 23.7051 27.4004 23.7246 27.1934C23.748 26.9863 23.7598 26.7891 23.7598 26.6016ZM33.8438 29.1855C33.8438 29.7246 33.7637 30.2324 33.6035 30.709C33.4434 31.1855 33.2109 31.6016 32.9062 31.957C32.6016 32.3164 32.2266 32.5996 31.7812 32.8066C31.3398 33.0176 30.8359 33.123 30.2695 33.123C29.957 33.123 29.6406 33.0879 29.3203 33.0176C29.0039 32.9473 28.7031 32.8379 28.418 32.6895C28.1367 32.5449 27.8828 32.3594 27.6562 32.1328C27.4336 31.9102 27.2578 31.6465 27.1289 31.3418L27.9844 31.0195C28.0586 31.2109 28.1543 31.3867 28.2715 31.5469C28.3926 31.707 28.5312 31.8438 28.6875 31.957C28.8438 32.0742 29.0156 32.1641 29.2031 32.2266C29.3906 32.293 29.5879 32.3262 29.7949 32.3262C30.1855 32.3262 30.5117 32.2461 30.7734 32.0859C31.0391 31.9258 31.252 31.7168 31.4121 31.459C31.5723 31.2012 31.6875 30.9082 31.7578 30.5801C31.8281 30.2559 31.8633 29.9258 31.8633 29.5898V29.1914C31.6289 29.5117 31.3457 29.75 31.0137 29.9062C30.6855 30.0586 30.3242 30.1348 29.9297 30.1348C29.4141 30.1348 28.9531 30.043 28.5469 29.8594C28.1406 29.6758 27.7969 29.4258 27.5156 29.1094C27.2344 28.7891 27.0195 28.4141 26.8711 27.9844C26.7227 27.5547 26.6484 27.0938 26.6484 26.6016C26.6484 26.1094 26.7227 25.6484 26.8711 25.2188C27.0195 24.7891 27.2344 24.416 27.5156 24.0996C27.7969 23.7793 28.1406 23.5273 28.5469 23.3438C28.9531 23.1602 29.4141 23.0684 29.9297 23.0684C30.1914 23.0684 30.4395 23.1074 30.6738 23.1855C30.9121 23.2637 31.1289 23.375 31.3242 23.5195C31.5234 23.6602 31.6973 23.832 31.8457 24.0352C31.998 24.2344 32.1172 24.457 32.2031 24.7031L33.082 23.2324H33.8438V29.1855ZM31.8516 26.6016C31.8516 26.4258 31.8418 26.2402 31.8223 26.0449C31.8066 25.8496 31.7773 25.6562 31.7344 25.4648C31.6914 25.2734 31.6309 25.0918 31.5527 24.9199C31.4785 24.7441 31.3809 24.5898 31.2598 24.457C31.1426 24.3203 31 24.2129 30.832 24.1348C30.6641 24.0566 30.4688 24.0176 30.2461 24.0176C30.0234 24.0176 29.8301 24.0586 29.666 24.1406C29.502 24.2188 29.3613 24.3262 29.2441 24.4629C29.127 24.5957 29.0293 24.75 28.9512 24.9258C28.877 25.1016 28.8184 25.2852 28.7754 25.4766C28.7324 25.668 28.7012 25.8613 28.6816 26.0566C28.666 26.248 28.6582 26.4297 28.6582 26.6016C28.6582 26.7734 28.666 26.957 28.6816 27.1523C28.7012 27.3477 28.7324 27.541 28.7754 27.7324C28.8184 27.9238 28.877 28.1074 28.9512 28.2832C29.0293 28.459 29.127 28.6152 29.2441 28.752C29.3613 28.8848 29.502 28.9922 29.666 29.0742C29.8301 29.1523 30.0234 29.1914 30.2461 29.1914C30.4492 29.1914 30.6289 29.1504 30.7852 29.0684C30.9453 28.9824 31.084 28.8691 31.2012 28.7285C31.3223 28.5879 31.4238 28.4277 31.5059 28.248C31.5879 28.0684 31.6543 27.8828 31.7051 27.6914C31.7559 27.5 31.793 27.3105 31.8164 27.123C31.8398 26.9316 31.8516 26.7578 31.8516 26.6016ZM42.6504 26.6016C42.6504 26.9531 42.6035 27.2832 42.5098 27.5918C42.416 27.9004 42.2852 28.1855 42.1172 28.4473C41.9531 28.709 41.7539 28.9453 41.5195 29.1562C41.2852 29.3633 41.0273 29.5391 40.7461 29.6836C40.4688 29.8281 40.1699 29.9395 39.8496 30.0176C39.5332 30.0957 39.207 30.1348 38.8711 30.1348C38.5352 30.1348 38.209 30.0957 37.8926 30.0176C37.5762 29.9395 37.2773 29.8281 36.9961 29.6836C36.7188 29.5391 36.4629 29.3633 36.2285 29.1562C35.9941 28.9453 35.793 28.709 35.625 28.4473C35.4609 28.1855 35.332 27.9004 35.2383 27.5918C35.1445 27.2793 35.0977 26.9492 35.0977 26.6016C35.0977 26.2539 35.1445 25.9258 35.2383 25.6172C35.332 25.3047 35.4609 25.0176 35.625 24.7559C35.793 24.4941 35.9941 24.2598 36.2285 24.0527C36.4629 23.8418 36.7188 23.6641 36.9961 23.5195C37.2773 23.375 37.5762 23.2637 37.8926 23.1855C38.209 23.1074 38.5352 23.0684 38.8711 23.0684C39.207 23.0684 39.5332 23.1074 39.8496 23.1855C40.1699 23.2637 40.4688 23.375 40.7461 23.5195C41.0273 23.6641 41.2852 23.8418 41.5195 24.0527C41.7539 24.2598 41.9531 24.4941 42.1172 24.7559C42.2852 25.0176 42.416 25.3047 42.5098 25.6172C42.6035 25.9258 42.6504 26.2539 42.6504 26.6016ZM40.6348 26.6016C40.6348 26.4141 40.623 26.2168 40.5996 26.0098C40.5801 25.7988 40.5449 25.5938 40.4941 25.3945C40.4434 25.1914 40.373 24.998 40.2832 24.8145C40.1973 24.627 40.0898 24.4648 39.9609 24.3281C39.832 24.1875 39.6777 24.0762 39.498 23.9941C39.3184 23.9082 39.1094 23.8652 38.8711 23.8652C38.6445 23.8652 38.4434 23.9082 38.2676 23.9941C38.0918 24.0801 37.9375 24.1953 37.8047 24.3398C37.6758 24.4805 37.5664 24.6445 37.4766 24.832C37.3906 25.0195 37.3203 25.2148 37.2656 25.418C37.2109 25.6172 37.1719 25.8203 37.1484 26.0273C37.125 26.2305 37.1133 26.4219 37.1133 26.6016C37.1133 26.7812 37.125 26.9746 37.1484 27.1816C37.1719 27.3848 37.2109 27.5879 37.2656 27.791C37.3203 27.9941 37.3906 28.1895 37.4766 28.377C37.5664 28.5605 37.6758 28.7246 37.8047 28.8691C37.9375 29.0098 38.0918 29.123 38.2676 29.209C38.4434 29.2949 38.6445 29.3379 38.8711 29.3379C39.1055 29.3379 39.3125 29.2969 39.4922 29.2148C39.6719 29.1289 39.8262 29.0156 39.9551 28.875C40.0879 28.7344 40.1973 28.5723 40.2832 28.3887C40.3691 28.2051 40.4375 28.0117 40.4883 27.8086C40.543 27.6055 40.5801 27.4004 40.5996 27.1934C40.623 26.9863 40.6348 26.7891 40.6348 26.6016Z" fill="#202020"/>
</svg>
